<svg id="Layer_1" data-name="Layer 1" xmlns="http://www.w3.org/2000/svg" xmlns:xlink="http://www.w3.org/1999/xlink" viewBox="0 0 1024 1024"><defs><style>.cls-1,.cls-54,.cls-75,.cls-76,.cls-80{fill:none;}.cls-2{fill:#43a1ff;}.cls-3{fill:#9b785a;}.cls-4{fill:#e3c09c;}.cls-5{fill:#fff;}.cls-6{fill:#48b1ab;}.cls-7{clip-path:url(#clip-path);}.cls-8{fill:#d6d6d6;}.cls-9{fill:#f5b382;}.cls-10{fill:#f29f7f;}.cls-11{fill:#ed8776;}.cls-12{fill:#eb766e;}.cls-13{fill:#e75d65;}.cls-14{fill:#e9e8e8;}.cls-15{fill:#ffd70e;}.cls-16{fill:#f9c616;}.cls-17{fill:#f6b61a;}.cls-18{fill:#f2a31e;}.cls-19{fill:#ee8e20;}.cls-20{fill:#b8cae8;}.cls-21{fill:#9ec2e5;}.cls-22{fill:#83b9e3;}.cls-23{fill:#67b0df;}.cls-24{fill:#30a4da;}.cls-25{fill:#595957;}.cls-26{fill:#f1f1f1;}.cls-27{fill:#71706f;}.cls-28{fill:#aeadad;}.cls-29{fill:#f0ca32;}.cls-30{fill:#ddb61f;}.cls-31{fill:#828383;}.cls-32{fill:#ea8021;}.cls-33{fill:#1b98d2;}.cls-34{fill:#0088b8;}.cls-35{fill:#03819e;}.cls-36{fill:#0d5268;}.cls-37{fill:#cd9861;}.cls-38{fill:#edc01b;}.cls-39{fill:#dfa77e;}.cls-40{fill:#cdcdcc;}.cls-41{fill:#e65730;}.cls-42{fill:#bb8659;}.cls-43{fill:#1e1f1d;}.cls-44{fill:#dadcdc;}.cls-45{fill:#b6b6b5;}.cls-46{fill:#e6644c;}.cls-47{fill:#d44625;}.cls-48{fill:#e9aa34;}.cls-49{fill:#edbc35;}.cls-50{fill:#e79834;}.cls-51{fill:#eec134;}.cls-52{fill:#ecb735;}.cls-53{fill:#e75257;}.cls-54{stroke:#fff;stroke-width:3.89px;}.cls-54,.cls-75,.cls-76,.cls-80{stroke-miterlimit:10;}.cls-55{fill:#b28c69;}.cls-56{fill:#80caeb;}.cls-57{fill:#7f4e24;}.cls-58{fill:#734928;}.cls-59{fill:#038b3d;}.cls-60{fill:#097e3a;}.cls-61{fill:#d1e8f0;opacity:0.17;}.cls-62{fill:#4b494a;}.cls-63{fill:#f2f2f2;}.cls-64{fill:#d6d7d7;}.cls-65{fill:#e86c21;}.cls-66{fill:#c7e4eb;}.cls-67{fill:#2b7181;}.cls-68{fill:#27606e;}.cls-69{fill:#1f515e;}.cls-70{fill:#2c7281;}.cls-71{fill:#3c838f;}.cls-72{fill:#357c89;}.cls-73{fill:#488d96;}.cls-74{fill:#58a3a7;}.cls-75{stroke:#ebebeb;}.cls-75,.cls-76,.cls-80{stroke-width:0.49px;}.cls-76{stroke:#eae9ea;}.cls-77{fill:#d26e73;}.cls-78{fill:#d86b4f;}.cls-79{fill:#c8c5c5;}.cls-80{stroke:#d6d7d7;}.cls-81{fill:#eae9ea;}.cls-82{fill:#ec7e5f;}.cls-83{fill:#75eae2;}.cls-84{fill:#ff9ca6;}</style><clipPath id="clip-path"><rect class="cls-1" x="100.28" y="394.97" width="214.53" height="214.53" transform="translate(102.37 -30.92) rotate(11.29)"/></clipPath></defs><rect class="cls-2" x="-1.14" y="-1.14" width="1026.27" height="1026.27" rx="513.13"/><path class="cls-3" d="M203.44,450.9l24.72-123.82,27.61,5.52q-14.47,61.48-29,123Z"/><path class="cls-4" d="M224.84,331.71c.15-.72.3-1.44.46-2.16l2.86-2.47L203.44,450.9Q212.31,391.52,224.84,331.71Z"/><path class="cls-5" d="M290.68,701.75,55.62,654.81l58.14-291.18,235.06,46.94L293.54,687.42Z"/><rect class="cls-6" x="100.28" y="394.97" width="214.53" height="214.53" transform="translate(102.37 -30.92) rotate(11.29)"/><g class="cls-7"><path class="cls-8" d="M272.62,484.37l-6.29,6.86a2.05,2.05,0,0,0,.12,2.9l17.74,16.28a2.07,2.07,0,0,0,2.91-.12l6.29-6.86a2.05,2.05,0,0,0-.13-2.9l-17.74-16.28A2.05,2.05,0,0,0,272.62,484.37Zm-2.23,4.28a.5.5,0,1,1,0,.7A.5.5,0,0,1,270.39,488.65Z"/><rect class="cls-9" x="266.84" y="489.5" width="13.41" height="4.09" transform="translate(-273.57 360.76) rotate(-47.46)"/><rect class="cls-10" x="270.24" y="492.61" width="13.41" height="4.09" transform="translate(-274.77 364.27) rotate(-47.46)"/><rect class="cls-11" x="273.63" y="495.73" width="13.41" height="4.09" transform="translate(-275.96 367.78) rotate(-47.46)"/><rect class="cls-12" x="277.03" y="498.84" width="13.41" height="4.09" transform="translate(-277.16 371.29) rotate(-47.46)"/><rect class="cls-13" x="280.42" y="501.96" width="13.41" height="4.09" transform="translate(-278.35 374.8) rotate(-47.46)"/><path class="cls-14" d="M271.13,484l-3.91,8.44a2.05,2.05,0,0,0,1,2.73l21.84,10.13a2.06,2.06,0,0,0,2.73-1l3.91-8.44a2.05,2.05,0,0,0-1-2.73L273.86,483A2.05,2.05,0,0,0,271.13,484Zm-.83,4.75a.52.52,0,0,1,.67-.25.5.5,0,0,1,.24.67.49.49,0,0,1-.66.24A.51.51,0,0,1,270.3,488.78Z"/><rect class="cls-15" x="267.49" y="488.53" width="13.41" height="4.09" transform="translate(-286.21 532.99) rotate(-65.13)"/><rect class="cls-16" x="271.67" y="490.47" width="13.41" height="4.09" transform="translate(-285.54 537.91) rotate(-65.13)"/><rect class="cls-17" x="275.85" y="492.41" width="13.41" height="4.09" transform="translate(-284.88 542.82) rotate(-65.13)"/><rect class="cls-18" x="280.03" y="494.35" width="13.41" height="4.09" transform="translate(-284.22 547.74) rotate(-65.13)"/><rect class="cls-19" x="284.21" y="496.28" width="13.41" height="4.09" transform="translate(-283.55 552.65) rotate(-65.13)"/><path class="cls-5" d="M269.22,484.26l-.43,9.29a2.06,2.06,0,0,0,2,2.15l24.05,1.12a2.06,2.06,0,0,0,2.15-2l.43-9.29a2.05,2.05,0,0,0-1.95-2.15l-24.06-1.12A2.06,2.06,0,0,0,269.22,484.26Zm1,4.7a.51.51,0,0,1,.53-.48.5.5,0,0,1,.47.53.49.49,0,0,1-.52.47A.5.5,0,0,1,270.25,489Z"/><rect class="cls-20" x="267.83" y="487.11" width="13.41" height="4.09" transform="translate(-226.91 740.55) rotate(-87.32)"/><rect class="cls-21" x="272.43" y="487.33" width="13.41" height="4.09" transform="translate(-222.74 745.35) rotate(-87.32)"/><rect class="cls-22" x="277.03" y="487.54" width="13.41" height="4.09" transform="translate(-218.57 750.15) rotate(-87.32)"/><rect class="cls-23" x="281.64" y="487.76" width="13.41" height="4.09" transform="translate(-214.4 754.95) rotate(-87.32)"/><rect class="cls-24" x="286.24" y="487.97" width="13.41" height="4.09" transform="translate(-210.23 759.76) rotate(-87.32)"/><path class="cls-25" d="M271.13,488.66l0,0,0,.07h0a3.22,3.22,0,0,1-.47.67l0,0h0a2,2,0,0,1-1.76.7h0a1.63,1.63,0,0,1-.55-.21,1.49,1.49,0,0,1-.5-.44,1.38,1.38,0,0,1-.17-.29,1.62,1.62,0,0,1,.24-1.65,1.65,1.65,0,0,1,1.15-.56l0,.38a1.2,1.2,0,0,0-1,1.68l.09.16a1.17,1.17,0,0,0,.39.38,1.46,1.46,0,0,0,.44.18h0a1.62,1.62,0,0,0,1.38-.52h0a3,3,0,0,0,.55-.78H271l.06,0Z"/><rect class="cls-26" x="135.59" y="535.2" width="3.43" height="8.95" rx="0.88" transform="translate(-189.02 88.44) rotate(-21.6)"/><path class="cls-27" d="M147.13,570l-8.55,3.1a1.51,1.51,0,0,1-1.9-.82q-6.63-15.27-13.24-30.55l12.88-4.66L148.07,568A1.58,1.58,0,0,1,147.13,570Z"/><path class="cls-28" d="M141.29,505.53l-.26.1-.26.09Z"/><path class="cls-29" d="M193.16,451l32.15,88.86-69.5-7.37-.17,0a10.46,10.46,0,0,0-4.63.59l-31.23,11.3c-4,1.45-8.64-1.15-10.33-5.82L105.62,528c-1.69-4.68.2-9.65,4.23-11.11l30.92-11.18.26-.09.26-.1a10.58,10.58,0,0,0,3.72-2.45c.13-.13.25-.27.38-.41Z"/><path class="cls-19" d="M137.69,506.83l9.94,27.49L119.78,544.4c-4,1.45-8.64-1.15-10.33-5.82L105.62,528c-1.69-4.68.2-9.65,4.23-11.11Z"/><path class="cls-19" d="M209,447.15h4.07a2.2,2.2,0,0,1,2.2,2.2v90.1a2.21,2.21,0,0,1-2.21,2.21H209a0,0,0,0,1,0,0v-94.5A0,0,0,0,1,209,447.15Z" transform="translate(-155.54 101.67) rotate(-19.89)"/><path class="cls-30" d="M224,536.34l1.29,3.58-69.49-7.37-.18,0a10.57,10.57,0,0,0-4.62.58l-3.38,1.23-1.3-3.58,3.39-1.22a10.4,10.4,0,0,1,4.62-.59l.18,0Z"/><path class="cls-31" d="M141.36,572.13l-2.78,1a1.5,1.5,0,0,1-1.9-.81q-6.62-15.29-13.24-30.55l2.78-1,13.24,30.54A1.52,1.52,0,0,0,141.36,572.13Z"/><path class="cls-32" d="M146.34,530.74l1.29,3.58L119.78,544.4c-4,1.45-8.64-1.15-10.33-5.82l-1.3-3.58c1.69,4.67,6.32,7.27,10.34,5.82Z"/><path class="cls-32" d="M229,531.74l1.29,3.58a2.68,2.68,0,0,1-1.62,3.44L225.33,540,224,536.4l3.36-1.21A2.71,2.71,0,0,0,229,531.74Z"/><path class="cls-25" d="M243.69,500.59l.28-.68c1.63.45,1.92.29,2-.76s.08-2.46.19-4.17L241,492.86c-.83.93-1.57,1.71-2.3,2.56-1.17,1.34-.91,1.67,1,2.71l-.28.67-5.53-2.26.27-.67c1.59.43,2,.41,3.76-1.4l10.1-10.55.83.17c-.17,4.71-.36,9.91-.55,14.68-.08,2.4,0,2.68,1.68,3.56l-.28.67Zm2.83-13.76c-1.61,1.75-3.32,3.6-4.81,5.2l4.48,1.83Z"/><path class="cls-25" d="M281.2,464.57a3.27,3.27,0,0,0-2.57,1.14,4.36,4.36,0,0,0-.8,3,4.09,4.09,0,0,0,1.13,2.93,3.63,3.63,0,0,0,2.76.94,4.46,4.46,0,0,0,1.53-.31,10.87,10.87,0,0,0,1.18-.6,2.15,2.15,0,0,1,.87,1.72,1.8,1.8,0,0,1-.95,1.58,5.82,5.82,0,0,1-3,.75,8.92,8.92,0,0,1-2.81-.31,6,6,0,0,1-4-3.36,8.29,8.29,0,0,1-.69-3.18,8.19,8.19,0,0,1,.42-3.07,6.53,6.53,0,0,1,1.4-2.29,6.21,6.21,0,0,1,2.16-1.46,7.42,7.42,0,0,1,2.68-.57,6.13,6.13,0,0,1,3.19.54,2,2,0,0,1,1.19,1.66,1.79,1.79,0,0,1-.25,1,2.51,2.51,0,0,1-.64.69,7.23,7.23,0,0,0-1.26-.59A4.05,4.05,0,0,0,281.2,464.57Z"/><path class="cls-33" d="M263.29,470.06l-34.93-1.21-.75,4.19v.17l.45,4.22L263,478.64c-.16-1.43-.31-2.87-.47-4.31C262.78,472.91,263,471.49,263.29,470.06Z"/><path class="cls-34" d="M262.52,474.33l-34.91-1.21v.09l.45,4.22L263,478.64C262.83,477.21,262.68,475.77,262.52,474.33Z"/><path class="cls-35" d="M263,478.64l.3-8.58-.77,4.27.47,4.31Z"/><path class="cls-36" d="M261,476.56a.08.08,0,0,0-.07.08h0l.22,1.93h.17l-.22-1.95A.09.09,0,0,0,261,476.56Z"/><path class="cls-36" d="M258.13,476.46a.08.08,0,0,0-.07.08h0l.22,1.93h.16l-.22-2A.08.08,0,0,0,258.13,476.46Z"/><path class="cls-36" d="M255.28,476.36s-.08,0-.08.08h0l.22,1.93h.17l-.22-2A.1.1,0,0,0,255.28,476.36Z"/><path class="cls-36" d="M252.42,476.42a.08.08,0,0,0-.08.08h0l.2,1.77h.17l-.2-1.8A.08.08,0,0,0,252.42,476.42Z"/><path class="cls-36" d="M249.56,476.32a.08.08,0,0,0-.07.08h0l.2,1.77h.17l-.21-1.8A.07.07,0,0,0,249.56,476.32Z"/><path class="cls-36" d="M246.71,476.22a.09.09,0,0,0-.08.08h0l.21,1.77H247l-.2-1.8S246.75,476.21,246.71,476.22Z"/><path class="cls-36" d="M243.85,476.12a.08.08,0,0,0-.07.08h0L244,478h.17l-.21-1.8A.08.08,0,0,0,243.85,476.12Z"/><path class="cls-36" d="M241,476a.11.11,0,0,0-.08.08h0l.21,1.78h.16l-.2-1.8A.1.1,0,0,0,241,476Z"/><path class="cls-36" d="M238.14,475.92a.08.08,0,0,0-.07.08h0l.2,1.78h.17l-.21-1.8A.08.08,0,0,0,238.14,475.92Z"/><path class="cls-36" d="M235.29,475.82a.11.11,0,0,0-.08.08v0l.21,1.77h.16l-.2-1.79A.09.09,0,0,0,235.29,475.82Z"/><path class="cls-36" d="M232.43,475.73a.07.07,0,0,0-.07.07v0l.2,1.77h.17l-.21-1.79A.07.07,0,0,0,232.43,475.73Z"/><path class="cls-36" d="M229.58,475.63a.1.1,0,0,0-.08.07v0l.21,1.77h.16l-.2-1.8A.08.08,0,0,0,229.58,475.63Z"/><path class="cls-36" d="M259.68,477.67a0,0,0,0,0,0,0h0l.09.81h.09l-.1-.82A0,0,0,0,0,259.68,477.67Z"/><path class="cls-36" d="M256.82,477.57s0,0,0,0h0l.09.81H257l-.09-.82S256.85,477.57,256.82,477.57Z"/><path class="cls-36" d="M254,477.47a0,0,0,0,0,0,0h0l.09.81h.09l-.1-.82A0,0,0,0,0,254,477.47Z"/><path class="cls-36" d="M251.11,477.53a0,0,0,0,0,0,0h0l.08.66h.08l-.08-.67S251.13,477.52,251.11,477.53Z"/><path class="cls-36" d="M248.25,477.43s0,0,0,0h0l.07.66h.09l-.08-.68S248.28,477.43,248.25,477.43Z"/><path class="cls-36" d="M245.4,477.33a0,0,0,0,0,0,0h0l.08.65h.08l-.08-.67A0,0,0,0,0,245.4,477.33Z"/><path class="cls-36" d="M242.54,477.23s0,0,0,0h0l.07.66h.08l-.07-.67A0,0,0,0,0,242.54,477.23Z"/><path class="cls-36" d="M239.69,477.13a0,0,0,0,0,0,0h0l.08.66h.08l-.08-.67A0,0,0,0,0,239.69,477.13Z"/><path class="cls-36" d="M236.83,477s0,0,0,0h0l.07.66H237l-.08-.67A0,0,0,0,0,236.83,477Z"/><path class="cls-36" d="M234,476.93s0,0,0,0h0l.08.66h.08L234,477A0,0,0,0,0,234,476.93Z"/><path class="cls-36" d="M231.12,476.84s0,0,0,0h0l.07.66h.09l-.08-.67A0,0,0,0,0,231.12,476.84Z"/><path class="cls-36" d="M234.39,469.06h-.09l-.1.57h0s0,0,0,0a.05.05,0,0,0,.05,0Z"/><path class="cls-36" d="M261.58,470h-.16l-.34,1.83h0a.08.08,0,0,0,.07.08.08.08,0,0,0,.09-.06Z"/><path class="cls-36" d="M258.73,469.91h-.17l-.33,1.83h0a.08.08,0,0,0,.07.08.08.08,0,0,0,.1-.06Z"/><path class="cls-36" d="M255.87,469.81h-.16l-.34,1.83h0a.08.08,0,0,0,.16,0Z"/><path class="cls-36" d="M253,469.71h-.17l-.31,1.68h0a.08.08,0,0,0,.07.08.08.08,0,0,0,.09-.07Z"/><path class="cls-36" d="M250.14,469.61H250l-.31,1.68h0s0,.07.06.08a.08.08,0,0,0,.1-.06Z"/><path class="cls-36" d="M247.28,469.51h-.16l-.31,1.68h0a.08.08,0,0,0,.16,0Z"/><path class="cls-36" d="M244.43,469.41h-.16l-.31,1.68h0a.06.06,0,0,0,.06.08.08.08,0,0,0,.1-.06Z"/><path class="cls-36" d="M241.58,469.31h-.17L241.1,471h0a.08.08,0,0,0,.16,0Z"/><path class="cls-36" d="M238.72,469.21h-.16l-.31,1.67h0a.08.08,0,0,0,.06.09.08.08,0,0,0,.1-.07Z"/><path class="cls-36" d="M235.87,469.11h-.17l-.31,1.67v0a.09.09,0,0,0,.07.08.08.08,0,0,0,.09-.07Z"/><path class="cls-36" d="M233,469h-.16l-.31,1.67v0s0,.07.06.08a.08.08,0,0,0,.1-.07Z"/><path class="cls-36" d="M230.16,468.92H230l-.31,1.67v0a.08.08,0,0,0,.07.08.08.08,0,0,0,.09-.07Z"/><path class="cls-36" d="M260.1,470H260l-.13.73h0s0,0,0,0,0,0,.05,0Z"/><path class="cls-36" d="M257.25,469.85h-.09l-.13.73h0s0,0,0,0a0,0,0,0,0,.05,0Z"/><path class="cls-36" d="M254.39,469.76h-.08l-.13.73h0s0,0,0,0a.05.05,0,0,0,0,0Z"/><path class="cls-36" d="M251.51,469.66h-.08l-.1.58h0s0,0,0,0,0,0,0,0Z"/><path class="cls-36" d="M248.66,469.56h-.08l-.11.58h0s0,0,0,0a0,0,0,0,0,.05,0Z"/><path class="cls-36" d="M245.8,469.46h-.08l-.1.57h0s0,0,0,0,0,0,0,0Z"/><path class="cls-36" d="M243,469.36h-.08l-.11.57h0a.05.05,0,0,0,0,.05,0,0,0,0,0,0,0Z"/><path class="cls-36" d="M240.1,469.26H240l-.1.57h0s0,0,0,0a.05.05,0,0,0,.05,0Z"/><path class="cls-36" d="M237.24,469.16h-.08l-.11.57h0a0,0,0,0,0,0,0s0,0,0,0Z"/><path class="cls-36" d="M231.53,469h-.08l-.11.57h0a0,0,0,0,0,0,0s0,0,0,0Z"/><path class="cls-37" d="M260.58,506l0-5.36-3.9,3.65Z"/><path class="cls-38" d="M248.63,525.47l2,.85,9-20.74a1.19,1.19,0,0,0-.14-.53,1.21,1.21,0,0,0-.54-.51l-.06,0a1.2,1.2,0,0,0-1.22.21Z"/><path class="cls-39" d="M260.54,500.65l-2.92,4.07-1-.42Z"/><rect class="cls-40" x="248.36" y="524.57" width="1.79" height="4.29" transform="translate(831.66 507.77) rotate(113.46)"/><rect class="cls-41" x="246.78" y="526.78" width="3.03" height="4.29" rx="1.52" transform="translate(832.35 511.74) rotate(113.46)"/><path class="cls-42" d="M260.54,500.65l-.93,4.94,1,.42Z"/><path class="cls-29" d="M248.63,525.47l9-20.74a.59.59,0,0,0-.42-.67.58.58,0,0,0-.57.24l-9,20.74Z"/><path class="cls-43" d="M248.94,525.6l1.33.58,9.18-21.13a1.21,1.21,0,0,0-.54-.51l-.06,0a1.14,1.14,0,0,0-.75,0Z"/><rect class="cls-44" x="246.89" y="525.54" width="1.79" height="1.08" transform="translate(829.02 508.23) rotate(113.46)"/><rect class="cls-45" x="249.83" y="526.82" width="1.79" height="1.08" transform="translate(834.31 507.31) rotate(113.46)"/><path class="cls-46" d="M245.38,527.75h2.88a.07.07,0,0,1,.07.07v0a1,1,0,0,1-1,1h-2a.07.07,0,0,1-.07-.07v-.93a.07.07,0,0,1,.07-.07Z" transform="translate(829.7 512.2) rotate(113.46)"/><path class="cls-47" d="M248.33,529h2a1,1,0,0,1,1,1v0a.07.07,0,0,1-.07.07h-2.88a.07.07,0,0,1-.07-.07v-.93a.07.07,0,0,1,.07-.07Z" transform="translate(835 511.28) rotate(113.46)"/><path class="cls-30" d="M250.59,526.32l9-20.74a.59.59,0,0,1,.78-.14.55.55,0,0,1,.21.57l-9,20.74Z"/><path class="cls-43" d="M260.12,501.62a1,1,0,0,0,.43.07v-1l-.78.74A1.06,1.06,0,0,0,260.12,501.62Z"/><path class="cls-48" d="M249.65,456.15c.83-1,1.65-2.11,2.47-3.16l9.08-5.31-.12-3-10.95,5.18Z"/><path class="cls-49" d="M261.08,444.71l.12,3,27.07-15.81Z"/><path class="cls-29" d="M288.26,431.87l-25.05,30.42L252.12,453"/><path class="cls-50" d="M249.65,456.15l4.54-1.43L252.12,453C251.3,454,250.48,455.1,249.65,456.15Z"/><path class="cls-29" d="M288.26,431.87l-47.67,12.82,9.54,5.2"/><path class="cls-51" d="M263.21,462.29q.07-7.94.14-15.86L252.12,453l11.09,9.3"/><path class="cls-52" d="M261.08,444.71v0H240.59l9.54,5.2,10.95-5.18"/><g id="W_Mark" data-name="W Mark"><path class="cls-32" d="M183,489.64a13.15,13.15,0,0,1,5.16-.71,13.29,13.29,0,0,1,2.5.4,13.21,13.21,0,0,1,4.51,2.17,13.73,13.73,0,0,1,1.87,1.7,13.14,13.14,0,0,1,3.37,9.63,13.29,13.29,0,0,1-.4,2.5,14.21,14.21,0,0,1-.87,2.36,13.11,13.11,0,0,1-12.63,7.39,13,13,0,0,1-4.86-1.27,13.09,13.09,0,0,1-7.39-12.63,13.29,13.29,0,0,1,.4-2.5,13,13,0,0,1,.87-2.35,13.17,13.17,0,0,1,1.3-2.16,14.35,14.35,0,0,1,1.7-1.87,13.18,13.18,0,0,1,4.47-2.66m-.27-.79a13.94,13.94,0,1,0,17.76,8.55,13.94,13.94,0,0,0-17.76-8.55Z"/><path class="cls-32" d="M176.41,505.84a11.64,11.64,0,0,0,9.64,7.71l-10.25-12.5A11.65,11.65,0,0,0,176.41,505.84Zm18.17-7a6.08,6.08,0,0,0-2-2.7,5.53,5.53,0,0,1-2-2.2,2,2,0,0,1,1.16-2.59l.15,0a11.62,11.62,0,0,0-15.84,7.86l.71-.23c1.14-.4,2.87-1.16,2.87-1.16a.48.48,0,0,1,.39.88s-.57.27-1.22.54L187,509.69l-.12-8-3.35-4.08c-.6.17-1.18.3-1.18.3a.48.48,0,0,1-.25-.93s1.86-.49,2.93-.87,2.88-1.16,2.88-1.16a.47.47,0,0,1,.38.87s-.57.28-1.21.55l8.08,10.39-.12-4A13.47,13.47,0,0,0,194.58,498.86Zm-6.68,4,.06,10.7a11.55,11.55,0,0,0,6.68-2.53l-.14-.12Zm7.25-9.52a8.66,8.66,0,0,1,.47,1.1,10.93,10.93,0,0,1,.54,4.22l0,10.85a11.6,11.6,0,0,0-1-16.17Z"/></g></g><path class="cls-3" d="M498.86,468.17,494,342l28.14-1.09q.27,63.16.55,126.33Z"/><path class="cls-4" d="M491.84,347.29c0-.74,0-1.48-.07-2.21L494,342l4.88,126.16Q493.63,408.37,491.84,347.29Z"/><path class="cls-3" d="M795.15,452.38,772.94,328.09l27.72-4.95q9,62.52,18,125.05Z"/><path class="cls-4" d="M771.54,333.61c-.12-.72-.25-1.45-.37-2.18l1.77-3.34,22.21,124.29Q781.73,393.87,771.54,333.61Z"/><path class="cls-5" d="M968,654,732,696.2,679.79,403.9l236-42.16,49.65,277.9Z"/><rect class="cls-53" x="711.59" y="393.54" width="214.53" height="214.53" transform="translate(-75.32 151.83) rotate(-10.13)"/><path class="cls-5" d="M642.28,691.71,402.75,701l-11.47-296.7L630.81,395l10.9,282.1Z"/><rect class="cls-29" x="408.41" y="412.14" width="214.53" height="214.53" transform="translate(-19.67 20.3) rotate(-2.21)"/><path class="cls-54" d="M22.84,322.53a2377.86,2377.86,0,0,0,419.87,52.84,2384.12,2384.12,0,0,0,588.43-52.19"/><path class="cls-4" d="M208.24,447.77,233,324l27.62,5.51q-14.49,61.48-29,123Z"/><path class="cls-55" d="M229.64,328.59c.15-.72.31-1.44.46-2.17L233,324,208.24,447.77Q217.12,388.4,229.64,328.59Z"/><rect class="cls-56" x="751.21" y="443.97" width="132.74" height="109.65" transform="matrix(0.98, -0.18, 0.18, 0.98, -74.99, 151.58)"/><path class="cls-57" d="M785.42,508.08a64.6,64.6,0,0,1,12.26,21.58,65.73,65.73,0,0,1,1.54,35.5L821.28,561a62.54,62.54,0,0,1-16-60.28"/><path class="cls-58" d="M821.3,561.08l-3.7.7a63.55,63.55,0,0,1-16-30.81,62.85,62.85,0,0,1,.91-28.49l-16.63,6.19-.41-.49,19.81-7.38a62.85,62.85,0,0,0-.91,28.49A63.62,63.62,0,0,0,821.3,561.08Z"/><path class="cls-59" d="M826.17,489.23a18.36,18.36,0,0,1-19.57,21.49A13,13,0,0,1,781.29,512a13.27,13.27,0,0,1-4,.58A13.05,13.05,0,0,1,766.77,492a20.56,20.56,0,0,1-2.19-6.27,20.84,20.84,0,0,1,31.78-21.21,13,13,0,0,1,21.36,12.29A18.29,18.29,0,0,1,826.17,489.23Z"/><path class="cls-60" d="M826.15,489.12a18.33,18.33,0,0,1-14.82,21.26,18.58,18.58,0,0,1-4.69.23,18.32,18.32,0,0,0,1.9-32.24,9.88,9.88,0,0,0,0-4.73c-1.17-4.62-6-8.13-12.2-9.09a12.85,12.85,0,0,1,6.23-3.09,13.12,13.12,0,0,1,9.52,2.08,13.65,13.65,0,0,1,5.62,8.46,12.82,12.82,0,0,1,0,4.73A18.27,18.27,0,0,1,826.15,489.12Z"/><path class="cls-61" d="M831.43,551.44l52.05-61.16-8.16-45.68q-56.76,59.64-113.53,119.29l69.64-12.45"/><path class="cls-61" d="M756,523.32l61.93-80.22-54.17,9.68-16.91,19.3Z"/><path class="cls-61" d="M849.39,546.63l34.22-44.22,1.19,5.42-29.12,37.46Z"/><rect class="cls-62" x="816.57" y="443.85" width="3.44" height="109.7" transform="translate(-74.96 151.7) rotate(-10.13)"/><rect class="cls-62" x="752.63" y="496.98" width="131.31" height="3.44" transform="translate(-74.96 151.7) rotate(-10.13)"/><path class="cls-63" d="M759.07,554.62H898.84a2.58,2.58,0,0,1,2.58,2.58V560a0,0,0,0,1,0,0H756.49a0,0,0,0,1,0,0v-2.83A2.58,2.58,0,0,1,759.07,554.62Z" transform="translate(-85.1 154.49) rotate(-10.13)"/><path class="cls-64" d="M895.39,543.07,761.32,567,741.18,454.33l134.08-24ZM765.27,561.35l124.45-22.23L871.31,436,746.85,458.28Z"/><path class="cls-65" d="M876.49,542.24l-.6-1.27a5.42,5.42,0,0,0,2.43-2.18,6,6,0,0,0,.42-4.64c-.17-.44-.36-.6-.45-.63s-.69-.11-2.33,2l-1.1-.86c1.53-2,2.83-2.8,3.86-2.47a2.27,2.27,0,0,1,1.32,1.45,7.42,7.42,0,0,1-.5,5.83A6.88,6.88,0,0,1,876.49,542.24Z"/><path class="cls-19" d="M863.13,532.49h13.8a.41.41,0,0,1,.41.41v6.9a7.31,7.31,0,0,1-7.31,7.31h0a7.31,7.31,0,0,1-7.31-7.31v-6.9a.41.41,0,0,1,.41-.41Z" transform="translate(-81.38 161.44) rotate(-10.13)"/><path class="cls-65" d="M876,531.73l1.21,6.79a7.31,7.31,0,0,1-5.91,8.48,7.23,7.23,0,0,1-5.14-1,7.24,7.24,0,0,0,4.19.49,7.32,7.32,0,0,0,5.91-8.49l-1.17-6.55.43-.08A.42.42,0,0,1,876,531.73Z"/><path class="cls-66" d="M866.94,532.52c4.36-3,5.26-4.56,4.95-5.41-.52-1.47-4.56-.73-5.47-2.68-.57-1.22.37-2.9,1.44-4.32-3.32,2.69-3.9,4.26-3.59,5.22.55,1.73,4,1.59,4.53,3.46C869.14,530,868.08,531.41,866.94,532.52Z"/><path class="cls-5" d="M888.87,422.43a4.87,4.87,0,0,1-8.94,3.43L735.62,451.64a4.89,4.89,0,1,1-.64-3.55l144.31-25.78a4.88,4.88,0,0,1,9.58.12Z"/><path class="cls-67" d="M769.4,441.94c5.17,46.75,4.81,81.33,2.62,89.94a58,58,0,0,1-7.4,16.9c-1.19,1.72-2.26,3-2.84,3.7,1.75,2.39,3.5,4.88,5.22,7.48a204.91,204.91,0,0,1,16.25,29.41L764.17,593q-4.83-19.78-9.2-40.63c-7.62-36.57-13.17-71.61-17.12-104.82Z"/><path class="cls-68" d="M767,560a204.91,204.91,0,0,1,16.25,29.41L764.17,593l0-.09,13-2.48a205.89,205.89,0,0,0-16.25-29.41q-2.6-3.9-5.22-7.48c.58-.68,1.65-2,2.84-3.7a57.86,57.86,0,0,0,7.39-16.9c2.2-8.61,2.55-43.19-2.61-89.94l6.15-1.1c5.17,46.75,4.81,81.33,2.62,89.94a58,58,0,0,1-7.4,16.9c-1.19,1.72-2.26,3-2.84,3.7C763.53,554.87,765.28,557.36,767,560Z"/><path class="cls-67" d="M844,428.61c11.34,45.64,23.65,78,28.69,85.28a58.13,58.13,0,0,0,12.79,13.29c1.72,1.2,3.17,2.05,4,2.49q-1.23,4.27-2.31,8.82a205.57,205.57,0,0,0-5.06,33.22l19.17-3.17q-2.31-20.24-5.44-41.3c-5.51-36.95-12.44-71.75-20.24-104.27Z"/><path class="cls-68" d="M887.15,538.49a205.57,205.57,0,0,0-5.06,33.22l19.17-3.17v-.08l-13,2.15a206.69,206.69,0,0,1,5.06-33.22q1.1-4.54,2.31-8.82a45.29,45.29,0,0,1-3.94-2.49,57.89,57.89,0,0,1-12.79-13.29c-5-7.32-17.35-39.64-28.7-85.28l-6.15,1.1c11.34,45.64,23.65,78,28.69,85.28a58.13,58.13,0,0,0,12.79,13.29c1.72,1.2,3.17,2.05,4,2.49Q888.23,533.94,887.15,538.49Z"/><path class="cls-69" d="M754.37,554c-.15-.72,7.84-2.72,8.11-2,.16.37-1.93,1.75-4.22,2.18C756.59,554.43,754.44,554.32,754.37,554Z"/><path class="cls-69" d="M896.57,528.23c-.19-.5-8,.85-7.91,1.38,0,.29,2.43.48,4.61,0C894.85,529.27,896.67,528.49,896.57,528.23Z"/><path class="cls-4" d="M798.47,447.72l-22.2-124.29,27.72-5q9,62.53,18,125Z"/><path class="cls-55" d="M774.87,329c-.13-.73-.25-1.45-.37-2.18l1.77-3.34,22.2,124.29Q785,389.2,774.87,329Z"/><g id="Layer_3" data-name="Layer 3"><path class="cls-70" d="M506.49,551.9l-29,52.31L461.65,589l-8.76-8.43-9.5-9.17,29-52.29h0Z"/><path class="cls-71" d="M472.43,519.09,517.2,532.7l35.17,30.73L506.49,551.9Z"/><polygon class="cls-72" points="506.49 551.9 477.46 604.21 523.35 615.74 552.37 563.43 552.35 563.42 506.49 551.9"/><path class="cls-70" d="M536.26,549.35l-43.88-11-7.23-7L528,542.13Z"/><path class="cls-68" d="M472.83,553.58h0s1.75-3.21,3.46-6.31c1.13-2,4.39-7.94,8.86-15.89l7.22,7-12.14,21.92-7.4-6.68"/><path class="cls-68" d="M456.14,583.67h0q1.47-2.7,2.95-5.4,4-7.23,8-14.29l7.35,6.73-11,19.93Z"/><g id="W_Mark-2" data-name="W Mark"><path class="cls-73" d="M481,549.48a3.43,3.43,0,0,1,1.43,2.16,3.55,3.55,0,0,1,0,1.3,3.42,3.42,0,0,1-1.47,2.19,3.34,3.34,0,0,1-1.21.48,2.79,2.79,0,0,1-.64.07,3.68,3.68,0,0,1-.66-.06,3.41,3.41,0,0,1-2.18-1.48,3.24,3.24,0,0,1-.49-1.2,3.49,3.49,0,0,1-.06-.65,3.57,3.57,0,0,1,.06-.65,3.42,3.42,0,0,1,1.47-2.19,3.55,3.55,0,0,1,.58-.3,3.48,3.48,0,0,1,.63-.18,2.79,2.79,0,0,1,.64-.07,3.68,3.68,0,0,1,.66.06,3.56,3.56,0,0,1,1.24.52m.12-.17a3.61,3.61,0,1,0,1,5h0a3.59,3.59,0,0,0-1-5h0Z"/><path class="cls-74" d="M476.62,550.61a3,3,0,0,0-.1,3.19l1-4.06A3.11,3.11,0,0,0,476.62,550.61Zm4.26,2.69a1.65,1.65,0,0,0,.26-.83,1.39,1.39,0,0,1,.15-.75.52.52,0,0,1,.71-.16l0,0a3,3,0,0,0-3.62-2.22,3.39,3.39,0,0,0-.45.15l.15.11c.26.18.69.42.69.42a.13.13,0,0,1,.05.17.12.12,0,0,1-.17,0h0a2.58,2.58,0,0,1-.3-.17l-.91,3.32,1.65-1.27.33-1.33a2.7,2.7,0,0,1-.25-.2.12.12,0,0,1,0-.17.14.14,0,0,1,.18,0h0s.39.31.63.47.69.42.69.42a.12.12,0,0,1-.13.21l-.3-.17-.89,3.29.8-.64A3.41,3.41,0,0,0,480.88,553.3Zm-1.87-.76-2.21,1.66a3,3,0,0,0,1.56,1l0-.05Zm3.1,0a2.26,2.26,0,0,1-.16.26,2.76,2.76,0,0,1-.79.77l-2.25,1.7a3,3,0,0,0,3.19-2.72Z"/></g><path class="cls-75" d="M512.32,455.08l-1,84.81"/><path class="cls-75" d="M534.77,467.15l-23.46,72.74"/><path class="cls-75" d="M566,482.4l-54.64,57.49"/><path class="cls-76" d="M584.62,493.7,511.3,539.89"/><path class="cls-77" d="M504.44,446.61a12.26,12.26,0,0,0,4.5,6.9,11.42,11.42,0,0,0,3.28,1.67q4.21-6.53,8.42-13a14,14,0,0,0-11,.05A13.12,13.12,0,0,0,504.44,446.61Z"/><path class="cls-78" d="M594.22,496.56c-1.18,1.41-4.31.6-5.79,0a9.63,9.63,0,0,1-3.81-2.87c2.41-6.27,5.42-10.53,7.39-10.12,2.14.44,2.43,6.35,2.66,11.14A2.53,2.53,0,0,1,594.22,496.56Z"/><path class="cls-79" d="M566,482.4a39.15,39.15,0,0,0,18.67,11.3L592,483.57c.89-11.23-4.3-20.12-11.09-21.85-1.24-.32-4.49-.89-9,1.35Z"/><path class="cls-78" d="M534.74,467.36a56.47,56.47,0,0,0,31.21,15l9.43-17-32.14-20.71Q539,456,534.74,467.36Z"/><path class="cls-79" d="M512.22,455.18a38.82,38.82,0,0,0,22.52,12.18l9.67-16.82-11.2-8.77-12.56.37Z"/><path class="cls-80" d="M571.12,467.58l-59.81,72.31"/><path class="cls-80" d="M515,445.19l-3.72,94.7"/><path class="cls-80" d="M541.65,451.06l-30.34,88.83"/><path class="cls-75" d="M588.37,485.9l-77.07,54"/><path class="cls-64" d="M515.06,446.31a24.51,24.51,0,0,1,26.6,4.76c.34-.53.85-1.32,1.49-2.25,6-8.8,11.77-17.2,20.72-20a23,23,0,0,1,9.92-.8,44,44,0,0,0-32-3.57C524.11,429.37,516.31,443.88,515.06,446.31Z"/><path class="cls-81" d="M571,467.89a20.3,20.3,0,0,1,10.52,4.64,20.83,20.83,0,0,1,6.93,13.65,45.25,45.25,0,0,0,4.65-28.73C590,440,577.43,430.66,574.8,428.78A51.13,51.13,0,0,1,571,467.89Z"/><path class="cls-82" d="M541.65,451.06A30.84,30.84,0,0,1,571,467.89c1.15-1.84,15.06-24.71,6-36.82a14.43,14.43,0,0,0-3.16-3.08,13.9,13.9,0,0,0-4.39-1.15C554.48,425.46,542.45,449.44,541.65,451.06Z"/><path class="cls-78" d="M573.79,428a44.16,44.16,0,0,0-22.43-4.58c-22.27,1.53-34.73,20.44-36.3,22.9a8.43,8.43,0,0,0-6.29-1.81,8.08,8.08,0,0,0-4.33,2.11,43.84,43.84,0,0,1,10.73-14.1c15.72-13.61,36.14-10.86,40.28-10.3A56.89,56.89,0,0,1,573.79,428"/><path class="cls-82" d="M588.41,486.18a44.34,44.34,0,0,0-13.61-57.4,51.08,51.08,0,0,1,19.42,67.79,8.7,8.7,0,0,0-.9-6.66A8.58,8.58,0,0,0,588.41,486.18Z"/><circle class="cls-64" cx="558.29" cy="451.65" r="0.5"/><circle class="cls-64" cx="558.84" cy="447.51" r="0.38"/><circle class="cls-64" cx="563.44" cy="453.78" r="0.38"/><circle class="cls-64" cx="562.6" cy="445.75" r="0.26"/><circle class="cls-64" cx="564.92" cy="449.93" r="0.26"/><circle class="cls-64" cx="566.41" cy="447.58" r="0.62"/><path class="cls-64" d="M561.21,446.72a2.76,2.76,0,0,1,.93-.19,2.81,2.81,0,0,1,1.22.25,3.56,3.56,0,0,1,1.63,1.41,2,2,0,0,1,.14.25.67.67,0,0,1-1.17.63,2.44,2.44,0,0,0-.92-.91,1.43,1.43,0,0,0-1.48,0,2,2,0,0,0-.91,1.69,1.42,1.42,0,0,0,.62,1,2.46,2.46,0,0,0,1.33.47.65.65,0,0,1,.63.67s0,.08,0,.12a.67.67,0,0,1-.64.54,3.63,3.63,0,0,1-1.42-.28,3.26,3.26,0,0,1-1.52-1.25,2.74,2.74,0,0,1-.23-2.41A3.31,3.31,0,0,1,561.21,446.72Z"/></g><path class="cls-4" d="M502.44,463.15,497.57,337l28.14-1.08q.27,63.17.55,126.33Z"/><path class="cls-55" d="M495.42,342.26l-.06-2.21,2.21-3.07,4.87,126.17Q497.21,403.35,495.42,342.26Z"/><path class="cls-82" d="M612.15,607.49c-1.37.22-3.57,1.57-4.81,2.17s-2.67,1.27-4.29.76c-.7-.22-1.86-.86-1.94-1.73s1-1.7,3.1-3.42c.46-.37.61-.48.86-.67,1.12-.9,3.94-3.17,3.91-6.1a5,5,0,0,0-2.53-4.36,4.81,4.81,0,0,0-3.3-.26,7.13,7.13,0,0,0-2.78,1.54,14.25,14.25,0,0,0-4,4.68,11.16,11.16,0,0,0-1.51,5,9.94,9.94,0,0,0,.88,4.53,8.15,8.15,0,0,0,5.94,4.85,10.87,10.87,0,0,0,4.13.17,12.16,12.16,0,0,0,6.39-3.16C614,610,614,609.33,614,609a1.9,1.9,0,0,0-1.24-1.47A1.38,1.38,0,0,0,612.15,607.49Zm-13-2.55c-.69-.49.24-3.61,2.23-5.34.63-.54,1.88-1.46,2.41-1.08s0,2.22-.09,2.36A5.88,5.88,0,0,1,602.3,603C601.7,603.57,599.76,605.38,599.14,604.94Z"/><rect class="cls-82" x="596.38" y="583.94" width="2.9" height="8.45" rx="1.43" transform="translate(-188.48 296.53) rotate(-24.18)"/><rect class="cls-82" x="602.89" y="582.54" width="2.9" height="8.45" rx="1.43" transform="translate(62.58 -58.22) rotate(5.82)"/><rect class="cls-82" x="591.33" y="587.73" width="2.9" height="8.45" rx="1.43" transform="translate(1419.69 457.68) rotate(125.82)"/><rect class="cls-82" x="589.02" y="593.54" width="2.9" height="8.45" rx="1.43" transform="translate(1263.41 94.66) rotate(97.87)"/><rect class="cls-82" x="608.77" y="584.67" width="2.9" height="8.45" rx="1.43" transform="translate(430.26 -239.83) rotate(33.77)"/><path class="cls-83" d="M241.14,603.59a2.63,2.63,0,0,1-.24-1.73h0a4.76,4.76,0,0,1,1.52-2.47h0a7.26,7.26,0,0,1,2.51-1.52h0a3.3,3.3,0,0,1,1.64-.19h0l.29.08h0a2.93,2.93,0,0,1,1.55,1.2h0c.05.09.11.19.15.28h0c.15-.5.34-1.13.52-1.79h0c.45-1.54.93-3.24,1-3.77h0s0-.08,0-.1h0a3.76,3.76,0,0,1,0-.9h0a1.08,1.08,0,0,1,.23-.5h0A.64.64,0,0,1,251,592h0a1.33,1.33,0,0,1,1.06,1.55h0a1.4,1.4,0,0,1-.16.43h0l0,0h0l-.07.19h0c-.06.16-.13.38-.21.64h0c-.17.53-.39,1.24-.61,2h0c-.41,1.42-.86,3.09-1.15,4.34h0a1.51,1.51,0,0,1,.39.28h0a.8.8,0,0,1,.22.5h0a1.56,1.56,0,0,1,0,.38h0a.78.78,0,0,1-.27.49h0a1,1,0,0,1-.43.21h0a4.71,4.71,0,0,1-.5.08h0a6.23,6.23,0,0,1-.09.89h0a2.64,2.64,0,0,1-.14.48h0a.93.93,0,0,1-.35.43h0a.63.63,0,0,1-.45.08h0l-.08,0h0a1.46,1.46,0,0,1-.61-.36h0a1,1,0,0,1-.26-.54h0a1.94,1.94,0,0,1,0-.24h0c-.31.12-.72.28-1.19.42h0a7.41,7.41,0,0,1-3.33.39h0a2.09,2.09,0,0,1-1.55-1.08Zm3-3.33a4.13,4.13,0,0,0-1.48,2h0a.59.59,0,0,0,0,.44h0a.68.68,0,0,0,.48.29h0a4.37,4.37,0,0,0,1.94-.3h0c.71-.22,1.48-.53,2.21-.8h0c0-.14,0-.33,0-.54h0a4.17,4.17,0,0,0-.35-1.42h0a1,1,0,0,0-.49-.5h0l-.15,0h0a3.23,3.23,0,0,0-2.17.88Zm7.72,4.28a7.53,7.53,0,0,1-.51-2.51h0a19.18,19.18,0,0,1,.2-3.85h0a.77.77,0,0,1,0-.15h0a1.05,1.05,0,0,1,.31-.6h0a.72.72,0,0,1,.62-.17h0l.14,0h0a1,1,0,0,1,.65.63h0a1.27,1.27,0,0,1,0,.6h0q0,.24-.09.45h0a16.31,16.31,0,0,0-.32,3h0a3.8,3.8,0,0,0,.31,1.74h0c.12.21.22.28.33.3h0a.67.67,0,0,0,.27,0h0a2,2,0,0,0,.95-.74h0a5.74,5.74,0,0,0,.72-1.37h0a14,14,0,0,0,.6-2.24h0s0,0,0-.07h0a1.18,1.18,0,0,1,.25-.57h0a.88.88,0,0,1,.85-.25h.06a.83.83,0,0,1,.49.33h0a1.1,1.1,0,0,1,.18.43h0a1.73,1.73,0,0,1,0,.49h0v.08c-.07.21-.3,1.11-.67,2.13h0a9.73,9.73,0,0,1-1.6,3h0a2.34,2.34,0,0,1-1.8.89h0a1.55,1.55,0,0,1-.31,0h0a2.34,2.34,0,0,1-1.69-1.51Zm7,3.11-.15,0h0a1.05,1.05,0,0,1-.62-.54h0a1,1,0,0,1-.09-.41h0l-.09,0h0a.87.87,0,0,1-.45-.5h0v0a.28.28,0,0,1,0-.12h0v-.05h0a.69.69,0,0,1,0-.13h0c0-.1,0-.23.05-.39h0c.05-.32.13-.75.22-1.25h0c.2-1,.48-2.35.81-3.43h0a1,1,0,0,1-.15-.65h0a.17.17,0,0,1,0-.07h0a.85.85,0,0,1,.37-.53h0a1.41,1.41,0,0,1,.34-.19h0l.08-.17h0l.35-.84h0a14.8,14.8,0,0,0,.7-2.29h0s0-.08,0-.11h0a2.2,2.2,0,0,0,0-.34h0a2.36,2.36,0,0,1,0-.59h0a.86.86,0,0,1,.29-.52h0a.93.93,0,0,1,.65-.17h.08a.82.82,0,0,1,.46.29h0a1.49,1.49,0,0,1,.24.47h0a2.73,2.73,0,0,1,.06,1.26h0s0,.08,0,.13h0a6.84,6.84,0,0,1-.46,1.43h0c-.16.39-.35.81-.58,1.42h0a7.3,7.3,0,0,1,2,.7h0a3.45,3.45,0,0,1,1.84,2.13h0a1.48,1.48,0,0,1,0,.66h0a3.14,3.14,0,0,1-.79,1.4h0a10.27,10.27,0,0,1-1.38,1.22h0a27.71,27.71,0,0,1-2.63,1.71h0l-.28.17h0a2.49,2.49,0,0,0-.21.17h0a.76.76,0,0,1-.31.23h0a.67.67,0,0,1-.34,0h0Zm.76-4.31a20.16,20.16,0,0,0-.29,2.1h0l.7-.38h0a11.59,11.59,0,0,0,2.23-1.56h0a2.12,2.12,0,0,0,.71-1h0a.58.58,0,0,0,0-.23h0a1.5,1.5,0,0,0-.76-.73h0a5.32,5.32,0,0,0-1.53-.53h0l-.34,0h0l-.16.44h0a12.72,12.72,0,0,0-.48,1.59h0c0,.12-.05.25-.07.37Zm5.5,6a1.08,1.08,0,0,1-.59-.34h0a.71.71,0,0,1-.19-.48h0a2.31,2.31,0,0,1,0-.52h0c0-.39.11-.89.21-1.47h0c.43-2.24,1.33-5.64,1.86-7.62h0c.27-1,.48-1.86.66-2.53h0a6.74,6.74,0,0,1,.48-1.44h0a.67.67,0,0,1,.23-.27h0a1,1,0,0,1,.68-.16h0a1.16,1.16,0,0,1,.72.56h0a.87.87,0,0,1,.14.4h0a1.33,1.33,0,0,1,0,.44h0c-.08.37-.24.87-.53,1.74h0c-.28.87-.68,2.11-1.21,3.91h0c-.42,1.41-.77,2.87-1,4.14h0a20.7,20.7,0,0,0-.32,2.19h0c0,.08,0,.19-.05.3h0a3.06,3.06,0,0,1-.15.53h0a1.17,1.17,0,0,1-.39.52h0a.77.77,0,0,1-.52.11h0Zm3.1-.67.24-.33-.24.33a2.65,2.65,0,0,1-.85-1.33h0a3.94,3.94,0,0,1-.12-2h0a3.9,3.9,0,0,1,.59-1.45h0a8.86,8.86,0,0,1,2-2.3h0a2.79,2.79,0,0,1,1.88-.62h0l.15,0h0a2.79,2.79,0,0,1,1.51.93h0a3.56,3.56,0,0,1,.79,2.46h0a3.77,3.77,0,0,1-.08.76h0a4.65,4.65,0,0,1-2.13,3.06h0a4.39,4.39,0,0,1-3,.73h0a2,2,0,0,1-.77-.32Zm3.47-5.78-.14,0h0a1.73,1.73,0,0,0-.56.22h0a4.89,4.89,0,0,0-1.81,2h0a1.9,1.9,0,0,0-.17.51h0a2.43,2.43,0,0,0,0,1h0a.86.86,0,0,0,.36.57h0l.15,0h0a2,2,0,0,0,1.17-.29h0a3.12,3.12,0,0,0,1-.79h0a3.64,3.64,0,0,0,.75-1.53h0a2,2,0,0,0,0-1h0a1.26,1.26,0,0,0-.22-.55h0a.8.8,0,0,0-.29-.21h-.22Zm-.09-.11.09-.29-.09.29ZM235,598.44a6.83,6.83,0,0,1,1.44-1.14,7.66,7.66,0,0,1,3.48-.88l.55.16a2.35,2.35,0,0,1,1.13.83,1.41,1.41,0,0,1,0,1.48,2.46,2.46,0,0,1-1.49,1.34,5.68,5.68,0,0,1-2.28.35c-.79,0-1.23,0-1.35.16s0,.37.18.66a4.7,4.7,0,0,0,1.82,1,8.26,8.26,0,0,0,4.27.66c.47-.05.85.5,1.1.51s.39.2.43.54c-.6.45-1.22.15-1.8.27a9.86,9.86,0,0,1-2.07.13,11.78,11.78,0,0,1-2.8-.5l-.63-.21a8.18,8.18,0,0,1-2.16-1.24,2.84,2.84,0,0,1-.7-1,2.7,2.7,0,0,1-.06-1.36A4.84,4.84,0,0,1,235,598.44Zm1.66.93a6.25,6.25,0,0,0,2.21-.26c.42-.17.64-.39.67-.64s-.23-.33-.8-.24a2.92,2.92,0,0,0-1.26.43A7.27,7.27,0,0,0,236.65,599.37Z"/><path class="cls-83" d="M268.62,615.66a8.05,8.05,0,0,1-3.63-2.72h0a.61.61,0,0,1-.13-.51h0a.26.26,0,0,1,0-.11h0a.93.93,0,0,1,.36-.45h0a1,1,0,0,1,.57-.16h.11a.76.76,0,0,1,.47.32h0a5.44,5.44,0,0,0,1,.94h0a8.87,8.87,0,0,0,1.19.77h0a9.57,9.57,0,0,0,1.94.77h0q.33.09.66.15h0a8.16,8.16,0,0,0,1.39.12h0a8.37,8.37,0,0,0,1.84-.2h0a4,4,0,0,0,2.17-1.65h0a11.23,11.23,0,0,0,1.17-3.2h0l-.45.38h0a4.22,4.22,0,0,1-.87.51h0a3.07,3.07,0,0,1-1.23.24h0l-.21,0h0a1.18,1.18,0,0,1-.5-.22h0a1.93,1.93,0,0,1-.49-.5h0a2.81,2.81,0,0,1-.4-1.94h0l0-.2h0a4.8,4.8,0,0,1,.74-1.79h0a12,12,0,0,1,1.34-1.7h0l.65-.6h0a8.78,8.78,0,0,1,1.11-.8h0a5.36,5.36,0,0,1,1.3-.57h0a1.78,1.78,0,0,1,.85-.06h0a1.76,1.76,0,0,1,.44.15h0a.73.73,0,0,1,.22.16h0a.31.31,0,0,1,.07.24h0a.43.43,0,0,1,0,.05h0a.84.84,0,0,1-.28.35h.06a1.29,1.29,0,0,1,.26.08h0a.81.81,0,0,1,.64.91h0a.64.64,0,0,1,0,.07h0l-.84,3.3h0c-.28,1.1-.61,2.18-.95,3.26h0a13.09,13.09,0,0,1-1.12,2.68h0a5.15,5.15,0,0,1-.8,1.07h0a5.12,5.12,0,0,1-1.84,1.17h0a8.15,8.15,0,0,1-2.21.48h0a10,10,0,0,1-2.37-.14h0a11.24,11.24,0,0,1-2.23-.65ZM279,604.05a3.85,3.85,0,0,0-.43.31h0l-.48.39h0a5.14,5.14,0,0,0-.8.82h0c-.23.28-.45.58-.68.88h0a5.07,5.07,0,0,0-1,1.95h0v0h0a2.19,2.19,0,0,0,0,.6h0c0,.12.05.18.08.19h0l.12-.06h0a2.77,2.77,0,0,0,.38-.33h0a9.55,9.55,0,0,0,1.22-1.52h0a14.22,14.22,0,0,0,1-1.68h0c.29-.57.58-1.14.88-1.7h0a1.86,1.86,0,0,0-.25.14Z"/><path class="cls-83" d="M281.33,611.9a4.08,4.08,0,0,1-1.09-1.49h0a.6.6,0,0,1-.05-.37h0a.78.78,0,0,1,.09-.24h0a1.19,1.19,0,0,1,.45-.41h0a1,1,0,0,1,.58-.12h.07a.58.58,0,0,1,.42.34h0a2.82,2.82,0,0,0,.66.9h0a.66.66,0,0,0,.32.18h0a.53.53,0,0,0,.42-.13h0l0,0h0l0-.08h0a.94.94,0,0,0,.14-.38h0v0h0a1.77,1.77,0,0,0,0-.64h0a2.2,2.2,0,0,0-.45-.85h0c-.14-.16-.28-.32-.44-.48h0a2.11,2.11,0,0,1-.42-.56h0a1.9,1.9,0,0,1-.22-1.3h0a1.9,1.9,0,0,1,.11-.39h0a2.56,2.56,0,0,1,1.32-1.48h0a4.56,4.56,0,0,1,1.9-.52h.14a.55.55,0,0,1,.36.25h0a.56.56,0,0,1,.09.43h0l0,.13h0a1.1,1.1,0,0,1-.81.66h0a2.45,2.45,0,0,0-.54.2h0a2.06,2.06,0,0,0-.55.35h0a.94.94,0,0,0-.29.44h0s0,0,0,0h0a.55.55,0,0,0,.16.44h0a6.3,6.3,0,0,0,.48.55h0a3.23,3.23,0,0,1,.47.63h0a7.26,7.26,0,0,1,.42.94h0a2.73,2.73,0,0,1,.15,1.05h0c0,.12,0,.23-.05.34h0a2.89,2.89,0,0,1-.56,1.28h0a2.11,2.11,0,0,1-1.5.85h0a2.35,2.35,0,0,1-.75,0h0a2.16,2.16,0,0,1-1-.51Zm2-1.29,0-.1,0,.1Zm0-.05,0,0,0,0Z"/><path class="cls-83" d="M281.81,600.08c.16-.16.33-.32.6-.23a.42.42,0,0,1,.3.52,1,1,0,0,1-.23.35l-.93,1c-.17.17-.34.32-.61.24a.43.43,0,0,1-.29-.53.77.77,0,0,1,.23-.35Z"/><path class="cls-83" d="M279.3,599.41c0-.23.07-.46.34-.55a.43.43,0,0,1,.55.23,1,1,0,0,1,0,.43l-.16,1.33c0,.23-.07.46-.34.56a.43.43,0,0,1-.55-.24.9.9,0,0,1,0-.42Z"/><path class="cls-83" d="M277,599.73a.6.6,0,0,1,.1-.65.43.43,0,0,1,.6,0,.9.9,0,0,1,.19.37l.37,1.3a.57.57,0,0,1-.1.64.43.43,0,0,1-.6,0,1,1,0,0,1-.19-.38Z"/><path class="cls-83" d="M276.67,601.42c.18.16.34.32.27.6a.43.43,0,0,1-.51.32.85.85,0,0,1-.36-.22l-1-.89a.57.57,0,0,1-.26-.59.42.42,0,0,1,.51-.32.87.87,0,0,1,.36.21Z"/><path class="cls-83" d="M283.28,601.85a.56.56,0,0,1,.65,0,.44.44,0,0,1,.06.6.86.86,0,0,1-.36.22l-1.24.51a.56.56,0,0,1-.65,0,.41.41,0,0,1-.05-.59.76.76,0,0,1,.35-.23Z"/><path class="cls-84" d="M713.85,429.57a2.35,2.35,0,0,1-.7-1.32h0a4.07,4.07,0,0,1,.51-2.45h0a6.17,6.17,0,0,1,1.58-2h0a2.71,2.71,0,0,1,1.27-.63h0a1.06,1.06,0,0,1,.25,0h0a2.51,2.51,0,0,1,1.6.51h0l.21.18h0c0-.45-.06-1-.1-1.59h0c-.1-1.38-.21-2.9-.29-3.35h0a.54.54,0,0,0,0-.08h0a3.72,3.72,0,0,1-.24-.74h0a1,1,0,0,1,0-.47h0a.58.58,0,0,1,.44-.35h0a1.13,1.13,0,0,1,1.3.94h0a.86.86,0,0,1,0,.39h0v0h0v.18h0c0,.14,0,.34,0,.58h0c0,.48.06,1.11.1,1.81h0c.09,1.27.21,2.74.35,3.84h0a1.15,1.15,0,0,1,.4.11h0a.67.67,0,0,1,.32.34h0a1.39,1.39,0,0,1,.1.31h0a.75.75,0,0,1-.07.47h0a.93.93,0,0,1-.29.3h0l-.39.21h0a4.31,4.31,0,0,1,.19.75h0a1.49,1.49,0,0,1,0,.42h0a.74.74,0,0,1-.15.45h0a.57.57,0,0,1-.34.2h-.08a1.25,1.25,0,0,1-.59-.11h0a.86.86,0,0,1-.37-.36h0c0-.07-.06-.13-.08-.19h0c-.22.19-.51.44-.85.69h0a6.5,6.5,0,0,1-2.57,1.29h0a1.79,1.79,0,0,1-1.57-.42Zm1.42-3.55a3.41,3.41,0,0,0-.61,2h0a.5.5,0,0,0,.17.34h0a.6.6,0,0,0,.47.09h0a3.94,3.94,0,0,0,1.48-.81h0c.51-.39,1-.86,1.55-1.3h0l-.18-.43h0a3.59,3.59,0,0,0-.7-1h0a.8.8,0,0,0-.54-.26h-.15a2.79,2.79,0,0,0-1.49,1.36Zm7.48,1.18a6.76,6.76,0,0,1-1.15-1.88h0a16.59,16.59,0,0,1-1-3.16h0l0-.12h0a.88.88,0,0,1,.08-.58h0a.59.59,0,0,1,.44-.32h.13a.9.9,0,0,1,.71.32h0a1.08,1.08,0,0,1,.2.47h0l.06.4h0a13.65,13.65,0,0,0,.62,2.49h0a3.29,3.29,0,0,0,.76,1.32h0a.46.46,0,0,0,.36.14h0a.41.41,0,0,0,.2-.1h0a1.63,1.63,0,0,0,.56-.87h0a4.68,4.68,0,0,0,.17-1.32h0a10.61,10.61,0,0,0-.17-2h0a.11.11,0,0,0,0-.05h0a1,1,0,0,1,0-.54h0a.77.77,0,0,1,.61-.45h0a.71.71,0,0,1,.49.11h0a.93.93,0,0,1,.27.3h0a1.2,1.2,0,0,1,.16.39h0v.07c0,.18.09,1,.09,1.91h0a8.41,8.41,0,0,1-.42,2.88h0a2,2,0,0,1-1.19,1.25h0l-.26.06h0a2,2,0,0,1-1.81-.73Zm6.59.45h-.14a.86.86,0,0,1-.66-.25h0a.87.87,0,0,1-.19-.31h-.09a.82.82,0,0,1-.51-.28h0v0a.25.25,0,0,1,0-.09h0v-.05h0a.62.62,0,0,1,0-.1h0c0-.08,0-.19-.07-.33h0c-.05-.27-.12-.65-.19-1.08h0a28.32,28.32,0,0,1-.35-3h0a.92.92,0,0,1-.32-.48h0a.13.13,0,0,1,0-.06h0a.78.78,0,0,1,.14-.54h0a1.31,1.31,0,0,1,.22-.25h0c0-.05,0-.1,0-.16h0c0-.19,0-.47,0-.78h0a12.93,12.93,0,0,0-.1-2.06h0a.29.29,0,0,1,0-.09h0a1.45,1.45,0,0,0-.11-.27h0a1.93,1.93,0,0,1-.16-.48h0a.76.76,0,0,1,.08-.5h0a.78.78,0,0,1,.47-.34h.07a.65.65,0,0,1,.46.1h0a1.37,1.37,0,0,1,.33.31h0a2.42,2.42,0,0,1,.42,1h0a.52.52,0,0,0,0,.11h0a6.27,6.27,0,0,1,0,1.29h0c0,.36,0,.76-.06,1.32h0a6.19,6.19,0,0,1,1.81,0h0a3,3,0,0,1,2.11,1.19h0a1.28,1.28,0,0,1,.21.53h0a2.78,2.78,0,0,1-.23,1.36h0a9.46,9.46,0,0,1-.75,1.39h0a23.32,23.32,0,0,1-1.62,2.15h0l-.18.22h0a.88.88,0,0,0-.12.2h0a.72.72,0,0,1-.18.27h0a.5.5,0,0,1-.27.12h0Zm-.65-3.7a15.6,15.6,0,0,0,.39,1.78h0l.45-.51h0a10.43,10.43,0,0,0,1.34-1.91h0a1.81,1.81,0,0,0,.27-1h0a.36.36,0,0,0-.07-.19h0a1.28,1.28,0,0,0-.83-.36h0a4.63,4.63,0,0,0-1.39,0h0l-.29.06h0v.41h0a12.64,12.64,0,0,0,.08,1.42h0c0,.11,0,.21.05.32Zm6.2,3.22a1,1,0,0,1-.58-.11h0a.68.68,0,0,1-.3-.34h0a2.57,2.57,0,0,1-.14-.42h0a11.59,11.59,0,0,1-.26-1.25h0c-.31-1.93-.58-4.94-.73-6.69h0c-.08-.89-.16-1.65-.22-2.24h0a6.6,6.6,0,0,1,0-1.3h0a.56.56,0,0,1,.1-.29h0a.84.84,0,0,1,.51-.32h0a1,1,0,0,1,.74.24h0a.71.71,0,0,1,.23.28h0a1.08,1.08,0,0,1,.11.36h0c0,.33.06.77.09,1.56h0c0,.79.07,1.9.17,3.52h0a35.24,35.24,0,0,0,.4,3.64h0a17,17,0,0,0,.38,1.85h0a1.22,1.22,0,0,1,0,.25h0a3.3,3.3,0,0,1,0,.47h0a1,1,0,0,1-.16.54h0a.65.65,0,0,1-.39.23h0Zm2.3-1.46.1-.33-.1.33a2.35,2.35,0,0,1-1.08-.82h0a3.54,3.54,0,0,1-.66-1.54h0a3.21,3.21,0,0,1,0-1.34h0a7.37,7.37,0,0,1,1-2.45h0a2.32,2.32,0,0,1,1.33-1.05h0l.13,0h0a2.36,2.36,0,0,1,1.49.31h0a3.07,3.07,0,0,1,1.36,1.75h0a3.15,3.15,0,0,1,.16.64h0a4,4,0,0,1-.82,3.1h0a3.78,3.78,0,0,1-2.21,1.46h0a1.55,1.55,0,0,1-.71,0ZM738.3,420l-.11.06h0a1.7,1.7,0,0,0-.38.34h0a4.16,4.16,0,0,0-.86,2.19h0a1.44,1.44,0,0,0,0,.46h0a2,2,0,0,0,.29.78h0a.74.74,0,0,0,.46.36h.13a1.77,1.77,0,0,0,.86-.59h0a2.61,2.61,0,0,0,.58-.93h0a3.32,3.32,0,0,0,.17-1.46h0a2,2,0,0,0-.33-.8h0a1.13,1.13,0,0,0-.33-.37h0a.67.67,0,0,0-.3-.09h0l-.16,0h0Zm-.11-.06v0Zm-30.81,7.25a6.17,6.17,0,0,1,.82-1.35,6.8,6.8,0,0,1,2.56-1.73l.49,0a2,2,0,0,1,1.15.34,1.22,1.22,0,0,1,.45,1.19,2.16,2.16,0,0,1-.81,1.52,4.92,4.92,0,0,1-1.74.95c-.65.2-1,.38-1,.53s.07.31.33.48a4.18,4.18,0,0,0,1.78.3,7.63,7.63,0,0,0,2.24-.2,7.46,7.46,0,0,0,1.4-.52c.36-.18.83.16,1,.1s.37,0,.5.3c-.35.54-.93.48-1.37.74a8.41,8.41,0,0,1-1.63.72,10.59,10.59,0,0,1-2.41.42h-.57a6.91,6.91,0,0,1-2.11-.36,2.63,2.63,0,0,1-.86-.61,2.47,2.47,0,0,1-.45-1.08A4.24,4.24,0,0,1,707.38,427.22Zm1.61.26a5.48,5.48,0,0,0,1.71-.85c.29-.27.4-.51.36-.72s-.29-.2-.73,0a2.42,2.42,0,0,0-.88.72A7.54,7.54,0,0,0,709,427.48Z"/><path class="cls-84" d="M739.58,431.25a6.9,6.9,0,0,1-3.73-1.13h0a.52.52,0,0,1-.25-.37h0a.31.31,0,0,1,0-.1h0a.74.74,0,0,1,.16-.47h0a.78.78,0,0,1,.42-.29h0l.08,0h0a.71.71,0,0,1,.48.12h0a4.14,4.14,0,0,0,1.06.47h0a7.73,7.73,0,0,0,1.18.28h0a8.25,8.25,0,0,0,1.79,0h0l.58-.08h0a6.62,6.62,0,0,0,1.16-.31h0a7,7,0,0,0,1.43-.7h0a3.45,3.45,0,0,0,1.26-2h0a9.28,9.28,0,0,0,0-2.93h0a3.7,3.7,0,0,1-.25.43h0a3.56,3.56,0,0,1-.55.68h0a2.62,2.62,0,0,1-.92.55h0l-.17,0h0a1,1,0,0,1-.48,0h0a1.54,1.54,0,0,1-.53-.26h0a2.45,2.45,0,0,1-.9-1.45h0l0-.17h0a4.07,4.07,0,0,1,.07-1.66h0a9.1,9.1,0,0,1,.59-1.76h0a5.61,5.61,0,0,1,.35-.68h0a6.57,6.57,0,0,1,.65-1h0a4.65,4.65,0,0,1,.88-.84h0a1.58,1.58,0,0,1,.68-.3h0a1.28,1.28,0,0,1,.39,0h0a.56.56,0,0,1,.23.07h0a.28.28,0,0,1,.13.17h0v0h0a.8.8,0,0,1-.12.37h0l.24,0h0a.71.71,0,0,1,.78.56h0v.06h0c.1,1,.2,1.93.29,2.9h0c.1,1,.15,1.95.19,2.92h0a10.67,10.67,0,0,1-.12,2.49h0a4.47,4.47,0,0,1-.33,1.1h0a4.27,4.27,0,0,1-1.14,1.48h0a6.81,6.81,0,0,1-1.64,1h0a8.54,8.54,0,0,1-2,.58h0a9.94,9.94,0,0,1-2,.13Zm4.95-12.41a2.81,2.81,0,0,0-.26.38h0l-.27.45h0a5.48,5.48,0,0,0-.41.9h0c-.1.29-.19.6-.28.91h0a4.43,4.43,0,0,0-.26,1.87h0v0h0a1.92,1.92,0,0,0,.15.49h0c0,.1.09.13.12.14h0l0,0h0l.07-.08h0a2.91,2.91,0,0,0,.21-.38h0a8.44,8.44,0,0,0,.54-1.59h0a13,13,0,0,0,.31-1.65h0l.21-1.63h0a2.31,2.31,0,0,0-.16.19Z"/><path class="cls-84" d="M748.74,424.48a3.52,3.52,0,0,1-1.32-.88h0a.55.55,0,0,1-.15-.28h0a.55.55,0,0,1,0-.22h0a.89.89,0,0,1,.24-.47h0a.93.93,0,0,1,.43-.27H748a.49.49,0,0,1,.44.15h0a2.43,2.43,0,0,0,.8.53h0a.5.5,0,0,0,.3.05h0a.5.5,0,0,0,.31-.23h0v0h0s0-.05,0-.08h0a1,1,0,0,0,0-.35h0a1.72,1.72,0,0,0-.21-.51h0a1.76,1.76,0,0,0-.61-.55h0l-.5-.26h0a1.81,1.81,0,0,1-.5-.33h0a1.68,1.68,0,0,1-.56-1h0a1.87,1.87,0,0,1,0-.34h0a2.24,2.24,0,0,1,.64-1.59h0a3.78,3.78,0,0,1,1.38-1h0l.11,0h0a.49.49,0,0,1,.37.1h0a.59.59,0,0,1,.2.33h0v.1h0a.89.89,0,0,1-.45.77h0a3.07,3.07,0,0,0-.38.32h0a2.05,2.05,0,0,0-.34.45h0a.81.81,0,0,0-.1.44h0v0h0a.48.48,0,0,0,.25.3h0a4.4,4.4,0,0,0,.56.31h0a2.27,2.27,0,0,1,.56.37h0a5.39,5.39,0,0,1,.62.64h0a2.13,2.13,0,0,1,.42.8h0a2.86,2.86,0,0,1,.07.28h0a2.56,2.56,0,0,1-.08,1.2h0a1.85,1.85,0,0,1-1,1.13h0a1.85,1.85,0,0,1-.61.21h0a1.79,1.79,0,0,1-1-.11Zm1.22-1.62v0Zm0,0,0,0,0,0Z"/><path class="cls-84" d="M745.66,414.8c.08-.18.17-.35.42-.37a.37.37,0,0,1,.39.34.78.78,0,0,1-.09.35l-.46,1.06c-.09.18-.18.35-.42.37a.38.38,0,0,1-.4-.34.78.78,0,0,1,.09-.35Z"/><path class="cls-84" d="M743.43,415a.51.51,0,0,1,.11-.55.39.39,0,0,1,.52,0,.86.86,0,0,1,.14.33l.26,1.13a.48.48,0,0,1-.11.55.35.35,0,0,1-.51,0,.73.73,0,0,1-.15-.33Z"/><path class="cls-84" d="M741.71,415.92c-.12-.17-.22-.34-.11-.55a.36.36,0,0,1,.48-.18.85.85,0,0,1,.26.25l.68.94a.49.49,0,0,1,.11.55.37.37,0,0,1-.48.17.69.69,0,0,1-.27-.25Z"/><path class="cls-84" d="M741.9,417.39c.19.08.37.16.39.4a.36.36,0,0,1-.32.41.74.74,0,0,1-.35-.07l-1.07-.42c-.19-.07-.36-.16-.39-.4a.36.36,0,0,1,.32-.41.72.72,0,0,1,.35.07Z"/><path class="cls-84" d="M747.36,415.8c.15-.13.31-.26.53-.17a.37.37,0,0,1,.23.47.83.83,0,0,1-.22.28l-.85.78a.52.52,0,0,1-.54.17.38.38,0,0,1-.22-.47,1,1,0,0,1,.22-.29Z"/></svg>